<?xml version="1.0" standalone="no"?>
<!DOCTYPE svg PUBLIC "-//W3C//DTD SVG 20010904//EN"
 "http://www.w3.org/TR/2001/REC-SVG-20010904/DTD/svg10.dtd">
<svg version="1.0" xmlns="http://www.w3.org/2000/svg"
 width="1000" height="110" viewBox="0 0 425 120"
 preserveAspectRatio="xMidYMid meet">

<g transform="translate(0.000000,492.000000) scale(0.100000,-0.100000)"
fill="#000000" stroke="none">
<path d="M0 2460 l0 -2460 6440 0 6440 0 0 2460 0 2460 -6440 0 -6440 0 0
-2460z m9451 550 c148 -15 199 -28 207 -54 4 -11 7 -70 7 -131 l0 -110 -25 2
c-14 1 -70 9 -125 18 -136 23 -301 17 -370 -14 -107 -47 -148 -122 -147 -268
1 -112 22 -173 75 -218 22 -19 57 -40 76 -45 54 -16 181 -24 244 -16 l57 7 0
75 0 74 -87 1 c-49 1 -92 1 -96 0 -4 -1 -17 3 -27 9 -18 10 -20 22 -20 120 0
98 2 110 19 120 12 6 107 10 239 10 174 0 222 -3 231 -14 8 -9 11 -97 9 -302
l-3 -289 -27 -13 c-106 -51 -414 -78 -540 -47 -204 49 -336 163 -393 339 -34
107 -41 201 -22 303 53 276 248 424 598 452 9 0 63 -4 120 -9z m-3964 -10 c97
-11 161 -40 222 -101 108 -108 130 -271 51 -375 -36 -48 -37 -57 -6 -77 13 -9
38 -44 55 -78 64 -128 29 -273 -87 -364 -99 -78 -112 -80 -477 -80 l-320 0 0
535 0 535 180 5 c99 3 207 7 240 8 33 1 97 -2 142 -8z m1148 -9 c100 -34 186
-99 230 -175 53 -94 57 -221 10 -320 -23 -49 -93 -124 -156 -167 l-23 -16 137
-181 c76 -100 140 -189 143 -197 5 -13 -15 -15 -149 -15 -121 0 -159 3 -170
14 -8 8 -47 60 -88 116 -41 57 -90 124 -109 151 -87 120 -156 208 -162 208 -5
1 -8 -109 -8 -244 l0 -246 -132 3 -133 3 -3 533 c-2 521 -2 533 17 540 37 13
552 7 596 -7z m753 6 c9 -6 12 -126 12 -543 l0 -535 -132 3 -133 3 -3 537 -2
537 32 3 c65 6 213 3 226 -5z m797 -19 c94 -27 151 -57 213 -113 126 -114 188
-299 162 -488 -32 -228 -188 -394 -420 -443 -88 -18 -495 -20 -507 -1 -9 14
-15 861 -7 984 l6 83 191 2 c240 4 275 1 362 -24z m2514 27 c20 -6 21 -13 21
-131 l0 -124 -267 -2 -268 -3 0 -75 0 -75 204 -3 c133 -1 209 -6 218 -14 10
-8 13 -39 11 -127 l-3 -116 -215 -5 -215 -5 0 -75 0 -75 268 -3 267 -2 0 -125
0 -125 -399 0 c-354 0 -400 2 -405 16 -3 9 -6 249 -6 534 0 442 2 520 14 527
18 10 746 18 775 8z m-7866 -76 c12 -7 114 -66 227 -133 274 -162 255 -154
277 -128 10 11 34 29 53 40 19 11 119 68 222 127 l187 107 308 -175 c169 -97
318 -183 331 -192 20 -15 22 -24 22 -113 l0 -98 -166 -94 c-91 -52 -203 -116
-247 -142 -218 -126 -246 -139 -266 -129 -10 6 -97 57 -192 114 -246 146 -310
181 -304 165 4 -10 -30 -35 -112 -83 -65 -38 -171 -99 -235 -137 -64 -37 -121
-68 -127 -68 -9 0 -158 83 -401 223 -58 33 -136 78 -174 99 -101 56 -96 48
-96 154 l0 93 43 24 c23 14 92 53 152 87 61 35 139 80 175 100 36 20 117 67
180 103 63 37 116 67 118 67 2 0 13 -5 25 -11z"/>
<path d="M5197 2743 c-4 -3 -7 -39 -7 -80 l0 -73 140 0 c82 0 149 5 164 11 50
23 57 103 13 134 -17 12 -54 15 -163 15 -77 0 -144 -3 -147 -7z"/>
<path d="M5192 2253 l3 -78 168 0 c165 0 169 0 188 24 25 31 24 81 -1 109 -20
21 -29 22 -191 22 l-170 0 3 -77z"/>
<path d="M6294 2737 c-2 -7 -3 -62 -2 -123 l3 -109 135 -3 c113 -2 141 1 170
15 42 21 60 54 60 108 0 101 -44 125 -228 125 -100 0 -134 -3 -138 -13z"/>
<path d="M7900 2460 l0 -293 93 6 c120 7 160 20 212 68 62 57 88 125 88 224 0
124 -46 209 -138 258 -31 17 -63 22 -147 25 l-108 4 0 -292z"/>
<path d="M2800 2752 c-21 -7 -302 -172 -318 -187 -18 -16 -14 -19 168 -120
156 -87 173 -92 210 -60 24 20 97 55 116 55 19 0 134 -61 134 -71 0 -10 -282
-169 -300 -169 -9 0 -54 22 -100 48 -161 92 -261 144 -266 139 -3 -3 73 -52
170 -109 160 -94 176 -106 182 -135 7 -38 24 -34 24 5 1 24 16 36 156 116 111
63 162 87 179 83 48 -9 30 3 -240 166 l-100 60 -77 -42 c-42 -22 -85 -41 -95
-41 -27 0 -115 58 -111 73 5 13 26 27 148 98 91 52 117 59 127 32 5 -14 8 -13
14 6 l9 22 42 -22 c24 -12 54 -30 68 -39 14 -10 162 -96 330 -193 559 -320
520 -296 520 -323 0 -14 4 -22 10 -19 6 3 10 16 10 28 0 17 22 35 101 82 134
79 138 92 7 22 -58 -32 -111 -57 -117 -57 -10 0 -363 196 -441 245 -19 12 -55
34 -80 47 -25 14 -128 74 -230 133 -228 132 -232 133 -250 127z"/>
<path d="M3635 2665 c-113 -68 -146 -84 -173 -82 -26 2 -30 1 -20 -9 15 -14
346 -214 355 -214 12 0 343 193 343 200 0 13 -304 181 -335 186 -24 3 -57 -13
-170 -81z m318 -20 c64 -37 122 -74 128 -81 7 -9 -5 -21 -53 -48 l-63 -35 -82
45 -83 45 -78 -42 c-57 -31 -84 -41 -102 -36 -29 7 -110 58 -110 69 0 4 21 19
48 34 26 15 79 47 118 71 71 43 107 53 120 32 5 -8 10 -6 16 5 5 9 12 15 16
13 4 -2 60 -34 125 -72z"/>
<path d="M4120 2370 c-9 -6 -10 -10 -3 -10 6 0 15 5 18 10 8 12 4 12 -15 0z"/>
</g>
</svg>
