<svg xmlns="http://www.w3.org/2000/svg" xmlns:xlink="http://www.w3.org/1999/xlink" version="1.1" width="500" height="110" viewBox="0 0 425 120" xml:space="preserve">
<desc>Created with Fabric.js 3.5.0</desc>
<defs>
</defs>
<rect x="0" y="0" width="100%" height="100%" fill="#ffffff"/>
<g transform="matrix(0.2032 0 0 0.206 211.071 50.013)" id="939310">
<g style="" vector-effect="non-scaling-stroke">
		<g transform="matrix(1 0 0 1 -121.8997 21.9595)">
<path style="stroke: none; stroke-width: 1; stroke-dasharray: none; stroke-linecap: butt; stroke-dashoffset: 0; stroke-linejoin: miter; stroke-miterlimit: 4; is-custom-font: none; font-file-url: none; fill: rgb(179,108,251); fill-rule: evenodd; opacity: 1;" transform=" translate(-1299.6004, -507.4595)" d="M 991.44 419.633 C 991.744 431.66 992.246 480.034 992.556 527.131 L 993.121 612.762 L 1005.81 613.975 C 1014.601 614.816 1031.559 615.029 1061 614.669 C 1106.287 614.115 1116.031 613.398 1132.439 609.409 C 1140.223 607.517 1154.332 598.012 1160.252 590.672 C 1168.424 580.54 1171.696 572.069 1173.442 556.53 C 1174.397 548.029 1174.409 544.15 1173.496 539.292 C 1171.877 530.677 1165.282 518.51 1158.249 511.163 C 1157.546 510.428 1155.81 508.306 1154.392 506.448 C 1151.815 503.069 1151.815 503.069 1154.121 499.784 C 1155.39 497.978 1156.782 496.35 1157.214 496.167 C 1157.646 495.983 1158 495.443 1158 494.967 C 1158 494.49 1159.35 492.1 1161 489.655 C 1162.65 487.21 1164 484.514 1164 483.664 C 1164 482.814 1164.45 481.84 1165 481.5 C 1166.415 480.625 1166.296 447.571 1164.861 443.071 C 1162.045 434.237 1156.6 425.833 1148.841 418.344 C 1143.223 412.922 1131.641 405 1129.331 405 C 1128.584 405 1127.191 404.587 1126.236 404.083 C 1120.943 401.287 1090.604 399.558 1026.694 398.409 L 990.888 397.765 L 991.44 419.633 M 1218.246 507.104 L 1218.5 616.5 L 1244.25 616.767 L 1270 617.034 L 1270 565.985 C 1270 519.802 1270.155 514.878 1271.624 514.314 C 1272.626 513.929 1273.631 514.376 1274.25 515.482 C 1274.802 516.468 1276.771 518.954 1278.626 521.008 C 1280.482 523.062 1282 525.181 1282 525.716 C 1282 526.252 1282.899 527.504 1283.999 528.499 C 1285.098 529.494 1287.911 532.948 1290.249 536.175 C 1294.726 542.355 1316.429 571.788 1317.77 573.5 C 1318.201 574.05 1319.661 576.075 1321.013 578 C 1322.365 579.925 1324.016 582.175 1324.681 583 C 1325.346 583.825 1327.693 586.975 1329.897 590 C 1332.102 593.025 1334.276 595.95 1334.73 596.5 C 1335.183 597.05 1336.645 599.075 1337.979 601 C 1339.313 602.925 1340.672 604.725 1341 605 C 1341.328 605.275 1342.687 607.075 1344.02 609 C 1349.771 617.306 1349.822 617.331 1359.649 616.629 C 1364.517 616.281 1376.487 615.712 1386.25 615.364 C 1404 614.731 1404 614.731 1404 612.384 C 1404 611.093 1401.412 606.083 1398.25 601.251 C 1392.623 592.653 1390.685 589.973 1372.433 565.543 C 1362.82 552.675 1362.623 552.399 1356.269 542.951 C 1351.334 535.614 1351.057 536.34 1361.981 527.992 C 1370.921 521.161 1374.671 517.638 1378.581 512.397 C 1380.18 510.254 1381.716 508.275 1381.994 508 C 1384.465 505.557 1389.951 493.516 1392.017 486 C 1393.492 480.636 1393.641 458.097 1392.227 454.225 C 1391.68 452.726 1390.633 449.475 1389.9 447 C 1384.92 430.172 1371.361 414.755 1355 407.315 C 1339.93 400.463 1328.589 399.365 1262.746 398.378 L 1217.991 397.708 L 1218.246 507.104 M 1445 507.5 L 1445 617 L 1470 617 L 1495 617 L 1495 507.5 L 1495 398 L 1470 398 L 1445 398 L 1445 507.5 M 1546 507.605 L 1546 617.211 L 1558.25 616.579 C 1564.987 616.232 1582.875 615.512 1598 614.98 C 1640.847 613.474 1654.151 612.06 1664.75 607.886 C 1665.987 607.399 1668.013 606.614 1669.25 606.142 C 1672.31 604.975 1678.477 601.88 1684.5 598.489 C 1700.702 589.366 1716.321 572.545 1723.491 556.5 C 1724.965 553.2 1726.583 549.719 1727.086 548.764 C 1727.589 547.809 1728 546.148 1728 545.073 C 1728 543.998 1728.4 542.871 1728.89 542.568 C 1729.379 542.266 1730.035 540.552 1730.349 538.759 C 1730.662 536.967 1731.485 532.35 1732.177 528.5 C 1734.316 516.604 1733.637 487.042 1731.039 479 C 1730.595 477.625 1729.678 474.475 1729.002 472 C 1724.76 456.481 1714.263 438.784 1703.015 428.189 C 1688.764 414.764 1671.501 406.03 1653 402.884 C 1642.251 401.055 1582.326 398.09 1554.75 398.022 L 1546 398 L 1546 507.605 M 2015.246 507.25 L 2015.5 616.5 L 2096.75 616.756 L 2178 617.012 L 2178 592.506 L 2178 568 L 2123 568 L 2068 568 L 2068 549.5 L 2068 531 L 2112.518 531 L 2157.036 531 L 2156.768 507.25 L 2156.5 483.5 L 2112.25 483.24 L 2068 482.979 L 2068 464.49 L 2068 446 L 2123 446 L 2178 446 L 2178 422 L 2178 398 L 2096.496 398 L 2014.991 398 L 2015.246 507.25 M 1860 400.468 C 1848.041 403.213 1826.229 411.84 1825.167 414.246 C 1824.983 414.661 1824.396 415 1823.862 415 C 1821.705 415 1810.074 423.781 1803.428 430.428 C 1792.645 441.21 1784.062 455.071 1779.235 469.5 C 1774.267 484.347 1772.233 501.058 1773.854 513.699 C 1774.484 518.614 1775 524.578 1775 526.952 C 1775 529.326 1775.486 533.12 1776.079 535.384 C 1776.673 537.648 1777.625 541.3 1778.195 543.5 C 1779.813 549.741 1781.056 552.974 1784.657 560.304 C 1793.087 577.466 1805.2 590.976 1819.25 598.888 C 1821.313 600.05 1824.589 601.9 1826.53 603 C 1828.472 604.1 1830.722 605 1831.53 605 C 1832.339 605 1833 605.398 1833 605.883 C 1833 606.369 1834.013 606.992 1835.25 607.268 C 1836.487 607.544 1840.648 608.946 1844.496 610.385 C 1848.343 611.823 1852.479 613 1853.687 613 C 1854.894 613 1856.118 613.381 1856.406 613.848 C 1857.143 615.041 1873.446 616.433 1886.5 616.418 C 1897.809 616.405 1919.877 614.699 1930.5 613.017 C 1933.8 612.494 1938.3 611.799 1940.5 611.471 C 1942.7 611.144 1945.4 610.485 1946.5 610.006 C 1947.6 609.528 1949.85 608.908 1951.5 608.63 C 1953.15 608.351 1956.525 607.609 1959 606.98 C 1961.475 606.351 1965.197 605.601 1967.272 605.311 C 1969.515 604.999 1971.444 604.039 1972.03 602.944 C 1972.655 601.777 1972.921 579.538 1972.758 542.301 L 1972.5 483.5 L 1923.25 483.241 L 1874 482.981 L 1874 506.972 L 1874 530.962 L 1896.75 531.231 L 1919.5 531.5 L 1919.773 548.585 C 1920.046 565.67 1920.046 565.67 1916.157 566.835 C 1911.242 568.307 1870.397 568.452 1869.5 567 C 1869.16 566.45 1866.91 566 1864.5 566 C 1862.09 566 1859.84 565.55 1859.5 565 C 1859.16 564.45 1858.032 564 1856.994 564 C 1852.174 564 1838.414 554.554 1834.817 548.777 C 1833.543 546.729 1832.239 545.042 1831.921 545.027 C 1831.406 545.003 1828.033 537.895 1825.976 532.5 C 1824.731 529.233 1822.809 509.609 1823.474 506.953 C 1823.812 505.604 1824.485 500.45 1824.969 495.5 C 1826.202 482.879 1826.456 481.834 1830.551 472.5 C 1833.907 464.85 1850.096 452 1856.378 452 C 1857.205 452 1858.16 451.55 1858.5 451 C 1858.84 450.45 1860.415 450 1862 450 C 1863.585 450 1865.16 449.55 1865.5 449 C 1865.84 448.45 1868.476 448 1871.359 448 C 1874.242 448 1877.075 447.525 1877.656 446.944 C 1879.476 445.124 1936.102 447.03 1938.5 448.992 C 1939.05 449.442 1943.775 449.965 1949 450.155 L 1958.5 450.5 L 1958.42 432 C 1958.317 407.981 1957.712 404.265 1953.611 402.482 C 1946.503 399.391 1871.702 397.781 1860 400.468 M 748.825 418.432 C 736.114 424.837 721.104 432.987 711.206 438.859 C 708.294 440.587 705.482 442 704.956 442 C 704.43 442 704 442.45 704 443 C 704 443.55 703.542 444 702.982 444 C 702.422 444 699.001 445.8 695.38 448 C 691.758 450.2 688.612 452 688.389 452 C 688.165 452 684.161 454.516 679.491 457.592 C 669.769 463.995 668.899 466.061 674.25 470.041 C 679.256 473.765 691.352 479.705 693.014 479.256 C 695.295 478.639 699.231 476.748 702 474.939 C 703.375 474.04 706.975 471.946 710 470.286 C 713.025 468.625 720 464.68 725.5 461.519 C 759.799 441.806 757.354 442.536 769.26 448.464 C 774.342 450.994 781.2 454.547 784.5 456.359 C 797.616 463.561 802.659 466.415 806.23 468.658 C 808.282 469.946 810.162 471 810.409 471 C 810.656 471 813.703 472.86 817.179 475.133 C 824.772 480.099 830 484.868 830 486.829 C 830 489.85 820.741 496.288 797.887 509.156 C 796.574 509.895 795.275 510.725 795 511 C 794.725 511.275 791.35 513.189 787.5 515.254 C 770.966 524.12 761.767 528.298 758.952 528.218 C 757.311 528.171 753.388 526.702 750.234 524.954 C 747.08 523.205 742.102 520.481 739.171 518.899 C 736.24 517.318 732.571 515.118 731.017 514.012 C 729.463 512.905 727.892 512 727.526 512 C 727.16 512 724.979 510.749 722.68 509.219 C 720.381 507.69 717.15 505.794 715.5 505.005 C 713.85 504.217 711.375 502.82 710 501.901 C 707.83 500.451 702.428 497.338 695.5 493.544 C 694.4 492.942 691.596 491.223 689.27 489.724 C 686.943 488.226 684.581 487 684.02 487 C 683.459 487 683 486.602 683 486.117 C 683 485.631 682.212 484.984 681.25 484.678 C 679.489 484.12 673.93 480.951 673 479.976 C 672.725 479.687 670.362 478.338 667.75 476.977 C 665.138 475.617 663 474.165 663 473.752 C 663 473.338 662.566 473 662.035 473 C 661.504 473 656.989 470.525 652 467.5 C 647.011 464.475 642.689 462 642.395 462 C 642.101 462 639.898 460.65 637.5 459 C 635.102 457.35 632.929 456 632.672 456 C 632.415 456 629.242 454.2 625.62 452 C 621.999 449.8 618.616 448 618.101 448 C 617.587 448 617.017 447.663 616.833 447.25 C 616.416 446.311 611.09 443.064 608.75 442.322 C 607.788 442.016 607 441.369 607 440.883 C 607 440.398 606.536 440 605.97 440 C 605.403 440 600.877 437.525 595.912 434.5 C 590.947 431.475 586.642 429 586.346 429 C 586.051 429 584.614 428.169 583.154 427.153 C 581.694 426.137 578.025 423.953 575 422.3 C 571.975 420.647 567.7 418.263 565.5 417.003 C 560.106 413.913 554.537 413.908 548.431 416.987 C 545.719 418.354 543.275 419.705 543 419.988 C 542.725 420.271 541.154 421.177 539.509 422.002 C 537.864 422.826 531.789 426.13 526.009 429.345 C 520.229 432.561 512.575 436.792 509 438.749 C 505.425 440.706 501.375 443.042 500 443.94 C 498.625 444.838 496.15 446.23 494.5 447.034 C 492.85 447.839 491.275 448.723 491 448.998 C 490.725 449.274 489.426 450.105 488.113 450.844 C 486.8 451.583 484.325 452.995 482.613 453.981 C 480.901 454.967 475.225 458.229 470 461.231 C 457.11 468.636 450.312 472.707 445.525 475.887 C 443.311 477.358 440.262 479.186 438.75 479.95 C 437.238 480.713 436 481.712 436 482.169 C 436 482.626 435.395 483 434.655 483 C 433.915 483 432.464 483.934 431.431 485.077 C 429.583 487.119 429.593 487.184 432.026 489.022 C 433.387 490.05 436.075 491.74 438 492.776 C 448.778 498.581 455.786 502.495 458 503.948 C 459.375 504.851 462.75 506.688 465.5 508.031 C 468.25 509.374 470.725 510.704 471 510.987 C 471.619 511.623 475.247 513.699 480.5 516.425 C 482.7 517.566 484.725 518.726 485 519.002 C 485.275 519.277 486.838 520.177 488.473 521.002 C 490.108 521.826 496.633 525.37 502.973 528.878 C 509.313 532.386 516.75 536.479 519.5 537.974 C 522.25 539.469 526.882 542.111 529.794 543.846 C 532.706 545.581 535.236 547 535.416 547 C 535.597 547 539.869 549.475 544.911 552.5 C 549.953 555.525 554.854 558 555.804 558 C 557.445 558 560.477 556.565 569.5 551.52 C 579.405 545.981 581.665 544.649 584.154 542.883 C 585.614 541.847 587.124 541 587.509 541 C 587.895 541 590.075 539.763 592.355 538.25 C 594.635 536.737 597.806 534.825 599.403 534 C 604.455 531.389 610.212 525.655 609.531 523.912 C 608.785 522.003 592.422 513.99 589.28 513.996 C 588.06 513.998 585.472 514.9 583.53 516 C 581.589 517.1 578.313 518.964 576.25 520.141 C 561.332 528.66 558.786 529.986 557.334 529.994 C 556.693 529.997 550.168 526.923 542.834 523.163 C 524.203 513.61 520.548 511.609 520.167 510.75 C 519.983 510.337 519.413 510 518.899 510 C 518.384 510 515.001 508.2 511.38 506 C 507.758 503.8 504.612 502 504.389 502 C 503.491 502 487.119 490.848 485.951 489.441 C 483.85 486.909 486.357 483.983 496.183 477.5 C 501.185 474.2 505.777 471.317 506.389 471.093 C 507 470.869 509.075 469.702 511 468.5 C 512.925 467.299 517.2 464.821 520.5 462.994 C 529.028 458.274 531.801 456.694 537.794 453.14 C 540.706 451.413 543.481 450 543.961 450 C 544.441 450 544.983 449.663 545.167 449.25 C 545.784 447.862 554.167 444 556.564 444 C 557.87 444 560.528 444.9 562.47 446 C 564.411 447.1 567.688 448.97 569.75 450.155 C 571.813 451.34 575.75 453.527 578.5 455.016 C 581.25 456.505 586.65 459.518 590.5 461.713 C 594.35 463.908 599.525 466.832 602 468.211 C 604.475 469.589 608.126 471.639 610.113 472.765 C 612.1 473.891 614.8 475.417 616.113 476.156 C 617.426 476.895 618.725 477.726 619 478.002 C 619.275 478.277 620.85 479.161 622.5 479.966 C 624.15 480.77 626.625 482.162 628 483.06 C 629.375 483.958 633.425 486.287 637 488.237 C 640.575 490.186 647.473 494.08 652.329 496.89 C 657.185 499.701 661.301 502 661.477 502 C 661.652 502 664.758 503.8 668.38 506 C 672.001 508.2 675.422 510 675.982 510 C 676.542 510 677 510.45 677 511 C 677 511.55 677.43 512 677.956 512 C 678.482 512 681.294 513.413 684.206 515.14 C 690.199 518.694 692.972 520.274 701.5 524.994 C 704.8 526.821 709.075 529.267 711 530.43 C 712.925 531.594 715.85 533.196 717.5 533.992 C 719.15 534.788 722.3 536.591 724.5 538 C 726.7 539.409 729.85 541.222 731.5 542.029 C 733.15 542.836 734.725 543.779 735 544.124 C 735.275 544.469 741.298 547.595 748.383 551.07 L 761.267 557.39 L 769.883 552.968 C 774.623 550.536 780.75 547.229 783.5 545.619 C 786.25 544.009 790.75 541.48 793.5 539.999 C 796.25 538.517 800.525 536.174 803 534.791 C 810.694 530.492 818.238 526.41 825 522.887 C 828.575 521.024 831.725 519.275 832 519 C 832.275 518.725 834.975 517.207 838 515.627 C 841.025 514.046 845.525 511.601 848 510.192 C 850.475 508.783 857.653 505.042 863.951 501.88 C 874.917 496.373 878.574 495.399 875.82 498.717 C 874.508 500.297 859.771 510.444 853.829 513.858 C 851.998 514.91 842.625 520.599 833 526.5 C 823.375 532.401 814.15 538.011 812.5 538.966 C 807.941 541.604 796.657 548.827 795.292 549.98 C 794.628 550.541 793.853 551 793.57 551 C 793.287 551 789.106 553.604 784.278 556.788 C 765.127 569.414 765.392 569.098 763.983 581 C 763.559 584.575 762.877 590.087 762.467 593.25 C 761.505 600.655 762.176 600.67 774 593.5 C 778.989 590.475 783.234 588 783.433 588 C 783.632 588 786.758 586.2 790.38 584 C 794.001 581.8 797.422 580 797.982 580 C 798.542 580 799 579.602 799 579.117 C 799 578.631 799.788 577.984 800.75 577.678 C 802.467 577.134 808.015 573.986 809 572.998 C 809.275 572.723 810.85 571.839 812.5 571.034 C 814.15 570.23 816.625 568.821 818 567.903 C 820.493 566.239 822.142 565.293 833.5 559.006 C 836.8 557.179 841.179 554.631 843.23 553.342 C 845.282 552.054 847.148 551 847.378 551 C 847.608 551 850.758 549.2 854.38 547 C 858.001 544.8 861.422 543 861.982 543 C 862.542 543 863 542.602 863 542.117 C 863 541.631 863.788 540.976 864.75 540.661 C 865.712 540.346 868.525 538.874 871 537.391 C 877.119 533.725 886.8 528.276 890.75 526.276 C 894 524.63 894 524.63 894 506.863 C 894 489.096 894 489.096 889.75 486.267 C 887.413 484.712 884.15 482.794 882.5 482.005 C 880.85 481.217 878.375 479.821 877 478.903 C 875.625 477.985 872.925 476.339 871 475.245 C 869.075 474.152 863.45 470.903 858.5 468.025 C 853.55 465.148 847.7 461.779 845.5 460.538 C 843.3 459.298 839.813 457.319 837.75 456.141 C 835.688 454.964 832.313 453.047 830.25 451.883 C 828.188 450.719 825.375 449.015 824 448.097 C 822.625 447.179 820.15 445.783 818.5 444.995 C 816.85 444.206 813.619 442.31 811.32 440.781 C 809.021 439.251 806.891 438 806.587 438 C 806.284 438 803.215 436.281 799.768 434.18 C 788.221 427.142 767.727 416.297 762.323 414.365 C 759.408 413.323 758.308 413.654 748.825 418.432 M 1046 464.5 L 1046 481 L 1071.316 481 C 1085.309 481 1099.269 480.513 1102.527 479.91 C 1109.008 478.712 1111.221 476.847 1115.093 469.32 C 1117.148 465.324 1117.214 464.668 1115.955 460.747 C 1115.205 458.411 1113.683 455.079 1112.572 453.343 C 1109.612 448.717 1104.276 448 1072.833 448 L 1046 448 L 1046 464.5 M 1270.667 448.667 C 1270.3 449.033 1270 460.283 1270 473.667 L 1270 498 L 1301.831 498 L 1333.662 498 L 1338.581 492.723 C 1345.69 485.098 1346.004 484.272 1345.972 473.264 C 1345.948 465.148 1345.564 462.759 1343.696 459.106 C 1341.038 453.909 1335.682 450.807 1326.44 449.112 C 1319.968 447.924 1271.793 447.54 1270.667 448.667 M 1602.484 449.185 C 1602.207 449.908 1602.098 476.595 1602.24 508.489 L 1602.5 566.478 L 1614 566.199 C 1632.235 565.756 1644.487 563.691 1652.953 559.634 C 1659.057 556.709 1668.341 547.9 1671.892 541.665 C 1678.833 529.479 1682.164 508.381 1679.671 492.394 C 1677.166 476.332 1666.94 460.456 1655.103 454.25 C 1652.742 453.012 1649.98 452 1648.965 452 C 1647.949 452 1646.869 451.598 1646.565 451.106 C 1645.647 449.62 1638.379 448.859 1620.243 448.353 C 1606.564 447.971 1602.883 448.143 1602.484 449.185 M 764.39 460.426 C 763.73 462.146 764.51 476.175 765.525 480.835 C 766.021 483.111 767.519 485.088 770.242 487.061 C 775.325 490.742 791.384 499 793.461 499 C 794.329 499 796.822 497.875 799 496.5 C 801.178 495.125 803.224 494 803.547 494 C 805.142 494 811 488.547 811 487.062 C 811 485.254 807.696 481.965 803.835 479.931 C 802.551 479.254 801.275 478.43 801 478.1 C 800.196 477.135 794.656 473.926 792.75 473.322 C 791.788 473.016 791 472.369 791 471.883 C 791 471.398 790.637 471 790.194 471 C 789.751 471 784.463 468.303 778.444 465.006 C 766.869 458.667 765.265 458.145 764.39 460.426 M 540.5 463.842 C 530.937 468.895 524.013 472.866 520.846 475.115 C 519.386 476.152 517.698 477 517.096 477 C 516.493 477 516 477.45 516 478 C 516 478.55 515.344 479 514.542 479 C 513.74 479 511.256 480.739 509.022 482.865 C 504.69 486.985 504.518 488.911 508.305 490.857 C 509.512 491.478 511.383 492.551 512.462 493.243 C 518.502 497.113 522.139 499 523.557 499 C 525.166 499 551.2 485.909 553.672 483.857 C 555.328 482.483 555.396 474.877 553.827 466.365 C 552.74 460.463 552.467 460.005 550.077 460.072 C 548.66 460.112 544.35 461.808 540.5 463.842 M 561.411 463.624 C 560.698 467.424 561.396 479.317 562.498 482.155 C 563.05 483.577 573.081 491 574.449 491 C 574.714 491 579.011 493.475 584 496.5 C 588.989 499.525 593.504 502 594.035 502 C 594.566 502 595 502.361 595 502.803 C 595 503.245 597.243 504.707 599.984 506.053 C 602.726 507.399 604.976 508.837 604.984 509.25 C 604.993 509.663 605.481 510 606.07 510 C 606.658 510 609.102 511.35 611.5 513 C 613.898 514.65 616.148 516 616.5 516 C 616.852 516 619.102 517.35 621.5 519 C 623.898 520.65 626.148 522 626.5 522 C 626.852 522 629.028 523.237 631.336 524.75 C 637.891 529.045 639.39 529.964 641 530.675 C 641.825 531.039 644.381 532.611 646.68 534.168 C 648.979 535.726 651.148 537 651.5 537 C 651.852 537 654.102 538.35 656.5 540 C 658.898 541.65 661.16 543 661.526 543 C 661.892 543 663.386 543.847 664.846 544.883 C 666.306 545.919 669.075 547.658 671 548.748 C 672.925 549.838 679.45 553.638 685.5 557.192 C 691.55 560.747 697.625 564.295 699 565.078 C 700.375 565.86 701.725 566.725 702 567 C 702.275 567.275 703.513 568.063 704.75 568.75 C 705.987 569.438 708.013 570.563 709.25 571.25 C 710.487 571.938 711.725 572.726 712 573.002 C 712.275 573.277 713.85 574.164 715.5 574.971 C 717.15 575.778 720.381 577.69 722.68 579.219 C 724.979 580.749 727.16 582 727.526 582 C 727.892 582 729.386 582.847 730.846 583.883 C 735.625 587.273 753.598 597 755.083 597 C 756.322 597 756.204 582.598 754.919 577.02 C 753.451 570.648 750.275 567.023 740.548 560.617 C 735.857 557.528 731.758 555 731.439 555 C 731.121 555 728.898 553.65 726.5 552 C 724.102 550.35 721.852 549 721.5 549 C 721.148 549 718.898 547.65 716.5 546 C 714.102 544.35 711.929 543 711.672 543 C 711.415 543 708.121 541.126 704.352 538.836 C 695.688 533.571 680.162 524.583 673 520.687 C 669.975 519.041 666.306 516.863 664.846 515.847 C 663.386 514.831 661.88 514 661.5 514 C 661.12 514 659.614 513.169 658.154 512.153 C 656.694 511.137 653.025 508.941 650 507.273 C 646.975 505.605 640.075 501.712 634.666 498.62 C 629.258 495.529 624.691 493 624.519 493 C 624.346 493 621.242 491.2 617.62 489 C 613.999 486.8 610.578 485 610.018 485 C 609.458 485 609 484.66 609 484.244 C 609 483.828 607.538 482.855 605.75 482.081 C 603.962 481.307 600.7 479.496 598.5 478.057 C 596.3 476.617 593.15 474.788 591.5 473.992 C 589.85 473.196 586.81 471.516 584.745 470.257 C 578.342 466.355 565.265 460 563.639 460 C 562.651 460 561.844 461.312 561.411 463.624 M 742 464.836 C 736.775 467.464 730.596 470.826 728.27 472.307 C 725.943 473.788 723.774 475 723.45 475 C 723.126 475 720.898 476.35 718.5 478 C 716.102 479.65 713.771 481.018 713.32 481.041 C 712.869 481.063 710.966 482.393 709.091 483.996 C 704.766 487.694 705.181 488.223 717.382 494.57 C 726.786 499.461 726.786 499.461 731.143 497.223 C 736.788 494.324 745.819 489.225 749.004 487.14 C 750.382 486.238 752.407 485.003 753.504 484.395 C 755.169 483.474 755.55 482.064 755.804 475.895 C 756.126 468.083 754.499 459.981 752.62 460.029 C 752.004 460.045 747.225 462.208 742 464.836 M 421.433 494.75 C 421.792 496.813 422.479 503.225 422.961 509 C 424.293 524.975 424.429 525.338 430.587 529.427 C 433.547 531.392 436.155 533 436.382 533 C 436.61 533 439.758 534.8 443.38 537 C 447.001 539.2 450.422 541 450.982 541 C 451.542 541 452.007 541.337 452.016 541.75 C 452.024 542.163 454.274 543.601 457.016 544.947 C 459.757 546.293 462 547.645 462 547.953 C 462 548.26 463.462 549.149 465.25 549.928 C 467.038 550.706 470.075 552.32 472 553.514 C 473.925 554.708 478.2 557.179 481.5 559.006 C 493.493 565.644 494.516 566.225 495.5 566.963 C 496.05 567.375 498.975 569.061 502 570.709 C 505.025 572.357 509.126 574.629 511.113 575.759 C 513.1 576.888 515.8 578.417 517.113 579.156 C 518.426 579.895 519.725 580.726 520 581.002 C 520.275 581.277 521.845 582.177 523.488 583.002 C 525.131 583.826 529.286 586.188 532.72 588.25 C 536.154 590.313 539.206 592 539.502 592 C 539.798 592 541.822 593.125 544 594.5 C 546.178 595.875 548.937 597 550.131 597 C 552.254 597 552.288 596.787 551.656 587.25 C 551.301 581.888 551.008 575.578 551.005 573.229 C 551 569.301 550.635 568.7 546.44 565.729 C 543.932 563.953 540.219 561.585 538.19 560.467 C 536.16 559.348 532.596 557.211 530.27 555.717 C 527.943 554.222 525.618 553 525.103 553 C 524.588 553 524.017 552.663 523.833 552.25 C 523.416 551.311 518.09 548.064 515.75 547.322 C 514.788 547.016 514 546.369 514 545.883 C 514 545.398 513.507 545 512.904 545 C 512.302 545 510.614 544.153 509.154 543.117 C 507.694 542.081 504.925 540.336 503 539.238 C 501.075 538.14 494.662 534.263 488.748 530.621 C 482.835 526.979 477.741 524 477.428 524 C 477.116 524 474.898 522.65 472.5 521 C 470.102 519.35 467.852 518 467.5 518 C 467.148 518 464.898 516.65 462.5 515 C 460.102 513.35 457.658 512 457.07 512 C 456.481 512 456 511.602 456 511.117 C 456 510.631 455.212 509.984 454.25 509.678 C 452.537 509.135 446.989 505.989 446 505 C 445.725 504.725 444.375 503.849 443 503.054 C 441.625 502.259 436.545 499.221 431.711 496.304 C 426.877 493.387 422.441 491 421.852 491 C 421.165 491 421.015 492.346 421.433 494.75 M 1047.5 531.834 C 1044.599 532.489 1044.479 532.742 1043.874 539.506 C 1042.97 549.611 1042.911 563.32 1043.765 564.601 C 1045.242 566.814 1051.026 567.361 1077 567.742 C 1105.198 568.156 1111.806 567.482 1117.5 563.612 C 1121.378 560.977 1122.585 559.33 1123.932 554.834 C 1125.301 550.265 1123.696 542.991 1120.28 538.281 C 1116.046 532.443 1111.437 531.675 1079 531.399 C 1063.325 531.266 1049.15 531.462 1047.5 531.834 M 617.5 535.59 C 615.3 536.939 612.825 538.334 612 538.69 C 611.175 539.045 608.619 540.611 606.32 542.168 C 604.021 543.726 601.852 545 601.5 545 C 601.148 545 598.898 546.35 596.5 548 C 594.102 549.65 591.899 551 591.605 551 C 590.939 551 573.81 561.281 568.796 564.69 C 564.342 567.718 562.591 572.43 561.06 585.5 C 559.705 597.064 559.702 597 561.666 597 C 563.626 597 581.084 587.864 595.794 579.14 C 598.706 577.413 601.26 576 601.471 576 C 601.681 576 605.519 573.75 610 571 C 614.481 568.25 618.307 566 618.503 566 C 618.849 566 629.013 559.753 641.75 551.711 C 645.188 549.541 648 547.336 648 546.811 C 648 545.403 645.739 543.385 641.374 540.898 C 625.882 532.072 623.944 531.641 617.5 535.59" stroke-linecap="round"/>
</g>
		<g transform="matrix(1 0 0 1 0.501 0.0005)">
<path style="stroke: none; stroke-width: 1; stroke-dasharray: none; stroke-linecap: butt; stroke-dashoffset: 0; stroke-linejoin: miter; stroke-miterlimit: 4; is-custom-font: none; font-file-url: none; fill: rgb(251,251,251); fill-rule: evenodd; opacity: 1;" transform=" translate(-1422.001, -485.5005)" d="M 0 485.5 L 0 971.001 L 1421.75 970.75 L 2843.5 970.5 L 2843.751 485.25 L 2844.002 0 L 1422.001 0 L 0 0 L 0 485.5 M 0.496 486 C 0.496 753.025 0.61 862.263 0.75 728.75 C 0.89 595.238 0.89 376.763 0.75 243.25 C 0.61 109.738 0.496 218.975 0.496 486 M 991.44 419.633 C 991.744 431.66 992.246 480.034 992.556 527.131 L 993.121 612.762 L 1005.81 613.975 C 1014.601 614.816 1031.559 615.029 1061 614.669 C 1106.287 614.115 1116.031 613.398 1132.439 609.409 C 1140.223 607.517 1154.332 598.012 1160.252 590.672 C 1168.424 580.54 1171.696 572.069 1173.442 556.53 C 1174.397 548.029 1174.409 544.15 1173.496 539.292 C 1171.877 530.677 1165.282 518.51 1158.249 511.163 C 1157.546 510.428 1155.81 508.306 1154.392 506.448 C 1151.815 503.069 1151.815 503.069 1154.121 499.784 C 1155.39 497.978 1156.782 496.35 1157.214 496.167 C 1157.646 495.983 1158 495.443 1158 494.967 C 1158 494.49 1159.35 492.1 1161 489.655 C 1162.65 487.21 1164 484.514 1164 483.664 C 1164 482.814 1164.45 481.84 1165 481.5 C 1166.415 480.625 1166.296 447.571 1164.861 443.071 C 1162.045 434.237 1156.6 425.833 1148.841 418.344 C 1143.223 412.922 1131.641 405 1129.331 405 C 1128.584 405 1127.191 404.587 1126.236 404.083 C 1120.943 401.287 1090.604 399.558 1026.694 398.409 L 990.888 397.765 L 991.44 419.633 M 1218.246 507.104 L 1218.5 616.5 L 1244.25 616.767 L 1270 617.034 L 1270 565.985 C 1270 519.802 1270.155 514.878 1271.624 514.314 C 1272.626 513.929 1273.631 514.376 1274.25 515.482 C 1274.802 516.468 1276.771 518.954 1278.626 521.008 C 1280.482 523.062 1282 525.181 1282 525.716 C 1282 526.252 1282.899 527.504 1283.999 528.499 C 1285.098 529.494 1287.911 532.948 1290.249 536.175 C 1294.726 542.355 1316.429 571.788 1317.77 573.5 C 1318.201 574.05 1319.661 576.075 1321.013 578 C 1322.365 579.925 1324.016 582.175 1324.681 583 C 1325.346 583.825 1327.693 586.975 1329.897 590 C 1332.102 593.025 1334.276 595.95 1334.73 596.5 C 1335.183 597.05 1336.645 599.075 1337.979 601 C 1339.313 602.925 1340.672 604.725 1341 605 C 1341.328 605.275 1342.687 607.075 1344.02 609 C 1349.771 617.306 1349.822 617.331 1359.649 616.629 C 1364.517 616.281 1376.487 615.712 1386.25 615.364 C 1404 614.731 1404 614.731 1404 612.384 C 1404 611.093 1401.412 606.083 1398.25 601.251 C 1392.623 592.653 1390.685 589.973 1372.433 565.543 C 1362.82 552.675 1362.623 552.399 1356.269 542.951 C 1351.334 535.614 1351.057 536.34 1361.981 527.992 C 1370.921 521.161 1374.671 517.638 1378.581 512.397 C 1380.18 510.254 1381.716 508.275 1381.994 508 C 1384.465 505.557 1389.951 493.516 1392.017 486 C 1393.492 480.636 1393.641 458.097 1392.227 454.225 C 1391.68 452.726 1390.633 449.475 1389.9 447 C 1384.92 430.172 1371.361 414.755 1355 407.315 C 1339.93 400.463 1328.589 399.365 1262.746 398.378 L 1217.991 397.708 L 1218.246 507.104 M 1445 507.5 L 1445 617 L 1470 617 L 1495 617 L 1495 507.5 L 1495 398 L 1470 398 L 1445 398 L 1445 507.5 M 1546 507.605 L 1546 617.211 L 1558.25 616.579 C 1564.987 616.232 1582.875 615.512 1598 614.98 C 1640.847 613.474 1654.151 612.06 1664.75 607.886 C 1665.987 607.399 1668.013 606.614 1669.25 606.142 C 1672.31 604.975 1678.477 601.88 1684.5 598.489 C 1700.702 589.366 1716.321 572.545 1723.491 556.5 C 1724.965 553.2 1726.583 549.719 1727.086 548.764 C 1727.589 547.809 1728 546.148 1728 545.073 C 1728 543.998 1728.4 542.871 1728.89 542.568 C 1729.379 542.266 1730.035 540.552 1730.349 538.759 C 1730.662 536.967 1731.485 532.35 1732.177 528.5 C 1734.316 516.604 1733.637 487.042 1731.039 479 C 1730.595 477.625 1729.678 474.475 1729.002 472 C 1724.76 456.481 1714.263 438.784 1703.015 428.189 C 1688.764 414.764 1671.501 406.03 1653 402.884 C 1642.251 401.055 1582.326 398.09 1554.75 398.022 L 1546 398 L 1546 507.605 M 2015.246 507.25 L 2015.5 616.5 L 2096.75 616.756 L 2178 617.012 L 2178 592.506 L 2178 568 L 2123 568 L 2068 568 L 2068 549.5 L 2068 531 L 2112.518 531 L 2157.036 531 L 2156.768 507.25 L 2156.5 483.5 L 2112.25 483.24 L 2068 482.979 L 2068 464.49 L 2068 446 L 2123 446 L 2178 446 L 2178 422 L 2178 398 L 2096.496 398 L 2014.991 398 L 2015.246 507.25 M 1860 400.468 C 1848.041 403.213 1826.229 411.84 1825.167 414.246 C 1824.983 414.661 1824.396 415 1823.862 415 C 1821.705 415 1810.074 423.781 1803.428 430.428 C 1792.645 441.21 1784.062 455.071 1779.235 469.5 C 1774.267 484.347 1772.233 501.058 1773.854 513.699 C 1774.484 518.614 1775 524.578 1775 526.952 C 1775 529.326 1775.486 533.12 1776.079 535.384 C 1776.673 537.648 1777.625 541.3 1778.195 543.5 C 1779.813 549.741 1781.056 552.974 1784.657 560.304 C 1793.087 577.466 1805.2 590.976 1819.25 598.888 C 1821.313 600.05 1824.589 601.9 1826.53 603 C 1828.472 604.1 1830.722 605 1831.53 605 C 1832.339 605 1833 605.398 1833 605.883 C 1833 606.369 1834.013 606.992 1835.25 607.268 C 1836.487 607.544 1840.648 608.946 1844.496 610.385 C 1848.343 611.823 1852.479 613 1853.687 613 C 1854.894 613 1856.118 613.381 1856.406 613.848 C 1857.143 615.041 1873.446 616.433 1886.5 616.418 C 1897.809 616.405 1919.877 614.699 1930.5 613.017 C 1933.8 612.494 1938.3 611.799 1940.5 611.471 C 1942.7 611.144 1945.4 610.485 1946.5 610.006 C 1947.6 609.528 1949.85 608.908 1951.5 608.63 C 1953.15 608.351 1956.525 607.609 1959 606.98 C 1961.475 606.351 1965.197 605.601 1967.272 605.311 C 1969.515 604.999 1971.444 604.039 1972.03 602.944 C 1972.655 601.777 1972.921 579.538 1972.758 542.301 L 1972.5 483.5 L 1923.25 483.241 L 1874 482.981 L 1874 506.972 L 1874 530.962 L 1896.75 531.231 L 1919.5 531.5 L 1919.773 548.585 C 1920.046 565.67 1920.046 565.67 1916.157 566.835 C 1911.242 568.307 1870.397 568.452 1869.5 567 C 1869.16 566.45 1866.91 566 1864.5 566 C 1862.09 566 1859.84 565.55 1859.5 565 C 1859.16 564.45 1858.032 564 1856.994 564 C 1852.174 564 1838.414 554.554 1834.817 548.777 C 1833.543 546.729 1832.239 545.042 1831.921 545.027 C 1831.406 545.003 1828.033 537.895 1825.976 532.5 C 1824.731 529.233 1822.809 509.609 1823.474 506.953 C 1823.812 505.604 1824.485 500.45 1824.969 495.5 C 1826.202 482.879 1826.456 481.834 1830.551 472.5 C 1833.907 464.85 1850.096 452 1856.378 452 C 1857.205 452 1858.16 451.55 1858.5 451 C 1858.84 450.45 1860.415 450 1862 450 C 1863.585 450 1865.16 449.55 1865.5 449 C 1865.84 448.45 1868.476 448 1871.359 448 C 1874.242 448 1877.075 447.525 1877.656 446.944 C 1879.476 445.124 1936.102 447.03 1938.5 448.992 C 1939.05 449.442 1943.775 449.965 1949 450.155 L 1958.5 450.5 L 1958.42 432 C 1958.317 407.981 1957.712 404.265 1953.611 402.482 C 1946.503 399.391 1871.702 397.781 1860 400.468 M 748.825 418.432 C 736.114 424.837 721.104 432.987 711.206 438.859 C 708.294 440.587 705.482 442 704.956 442 C 704.43 442 704 442.45 704 443 C 704 443.55 703.542 444 702.982 444 C 702.422 444 699.001 445.8 695.38 448 C 691.758 450.2 688.612 452 688.389 452 C 688.165 452 684.161 454.516 679.491 457.592 C 669.769 463.995 668.899 466.061 674.25 470.041 C 679.256 473.765 691.352 479.705 693.014 479.256 C 695.295 478.639 699.231 476.748 702 474.939 C 703.375 474.04 706.975 471.946 710 470.286 C 713.025 468.625 720 464.68 725.5 461.519 C 759.799 441.806 757.354 442.536 769.26 448.464 C 774.342 450.994 781.2 454.547 784.5 456.359 C 797.616 463.561 802.659 466.415 806.23 468.658 C 808.282 469.946 810.162 471 810.409 471 C 810.656 471 813.703 472.86 817.179 475.133 C 824.772 480.099 830 484.868 830 486.829 C 830 489.85 820.741 496.288 797.887 509.156 C 796.574 509.895 795.275 510.725 795 511 C 794.725 511.275 791.35 513.189 787.5 515.254 C 770.966 524.12 761.767 528.298 758.952 528.218 C 757.311 528.171 753.388 526.702 750.234 524.954 C 747.08 523.205 742.102 520.481 739.171 518.899 C 736.24 517.318 732.571 515.118 731.017 514.012 C 729.463 512.905 727.892 512 727.526 512 C 727.16 512 724.979 510.749 722.68 509.219 C 720.381 507.69 717.15 505.794 715.5 505.005 C 713.85 504.217 711.375 502.82 710 501.901 C 707.83 500.451 702.428 497.338 695.5 493.544 C 694.4 492.942 691.596 491.223 689.27 489.724 C 686.943 488.226 684.581 487 684.02 487 C 683.459 487 683 486.602 683 486.117 C 683 485.631 682.212 484.984 681.25 484.678 C 679.489 484.12 673.93 480.951 673 479.976 C 672.725 479.687 670.362 478.338 667.75 476.977 C 665.138 475.617 663 474.165 663 473.752 C 663 473.338 662.566 473 662.035 473 C 661.504 473 656.989 470.525 652 467.5 C 647.011 464.475 642.689 462 642.395 462 C 642.101 462 639.898 460.65 637.5 459 C 635.102 457.35 632.929 456 632.672 456 C 632.415 456 629.242 454.2 625.62 452 C 621.999 449.8 618.616 448 618.101 448 C 617.587 448 617.017 447.663 616.833 447.25 C 616.416 446.311 611.09 443.064 608.75 442.322 C 607.788 442.016 607 441.369 607 440.883 C 607 440.398 606.536 440 605.97 440 C 605.403 440 600.877 437.525 595.912 434.5 C 590.947 431.475 586.642 429 586.346 429 C 586.051 429 584.614 428.169 583.154 427.153 C 581.694 426.137 578.025 423.953 575 422.3 C 571.975 420.647 567.7 418.263 565.5 417.003 C 560.106 413.913 554.537 413.908 548.431 416.987 C 545.719 418.354 543.275 419.705 543 419.988 C 542.725 420.271 541.154 421.177 539.509 422.002 C 537.864 422.826 531.789 426.13 526.009 429.345 C 520.229 432.561 512.575 436.792 509 438.749 C 505.425 440.706 501.375 443.042 500 443.94 C 498.625 444.838 496.15 446.23 494.5 447.034 C 492.85 447.839 491.275 448.723 491 448.998 C 490.725 449.274 489.426 450.105 488.113 450.844 C 486.8 451.583 484.325 452.995 482.613 453.981 C 480.901 454.967 475.225 458.229 470 461.231 C 457.11 468.636 450.312 472.707 445.525 475.887 C 443.311 477.358 440.262 479.186 438.75 479.95 C 437.238 480.713 436 481.712 436 482.169 C 436 482.626 435.395 483 434.655 483 C 433.915 483 432.464 483.934 431.431 485.077 C 429.583 487.119 429.593 487.184 432.026 489.022 C 433.387 490.05 436.075 491.74 438 492.776 C 448.778 498.581 455.786 502.495 458 503.948 C 459.375 504.851 462.75 506.688 465.5 508.031 C 468.25 509.374 470.725 510.704 471 510.987 C 471.619 511.623 475.247 513.699 480.5 516.425 C 482.7 517.566 484.725 518.726 485 519.002 C 485.275 519.277 486.838 520.177 488.473 521.002 C 490.108 521.826 496.633 525.37 502.973 528.878 C 509.313 532.386 516.75 536.479 519.5 537.974 C 522.25 539.469 526.882 542.111 529.794 543.846 C 532.706 545.581 535.236 547 535.416 547 C 535.597 547 539.869 549.475 544.911 552.5 C 549.953 555.525 554.854 558 555.804 558 C 557.445 558 560.477 556.565 569.5 551.52 C 579.405 545.981 581.665 544.649 584.154 542.883 C 585.614 541.847 587.124 541 587.509 541 C 587.895 541 590.075 539.763 592.355 538.25 C 594.635 536.737 597.806 534.825 599.403 534 C 604.455 531.389 610.212 525.655 609.531 523.912 C 608.785 522.003 592.422 513.99 589.28 513.996 C 588.06 513.998 585.472 514.9 583.53 516 C 581.589 517.1 578.313 518.964 576.25 520.141 C 561.332 528.66 558.786 529.986 557.334 529.994 C 556.693 529.997 550.168 526.923 542.834 523.163 C 524.203 513.61 520.548 511.609 520.167 510.75 C 519.983 510.337 519.413 510 518.899 510 C 518.384 510 515.001 508.2 511.38 506 C 507.758 503.8 504.612 502 504.389 502 C 503.491 502 487.119 490.848 485.951 489.441 C 483.85 486.909 486.357 483.983 496.183 477.5 C 501.185 474.2 505.777 471.317 506.389 471.093 C 507 470.869 509.075 469.702 511 468.5 C 512.925 467.299 517.2 464.821 520.5 462.994 C 529.028 458.274 531.801 456.694 537.794 453.14 C 540.706 451.413 543.481 450 543.961 450 C 544.441 450 544.983 449.663 545.167 449.25 C 545.784 447.862 554.167 444 556.564 444 C 557.87 444 560.528 444.9 562.47 446 C 564.411 447.1 567.688 448.97 569.75 450.155 C 571.813 451.34 575.75 453.527 578.5 455.016 C 581.25 456.505 586.65 459.518 590.5 461.713 C 594.35 463.908 599.525 466.832 602 468.211 C 604.475 469.589 608.126 471.639 610.113 472.765 C 612.1 473.891 614.8 475.417 616.113 476.156 C 617.426 476.895 618.725 477.726 619 478.002 C 619.275 478.277 620.85 479.161 622.5 479.966 C 624.15 480.77 626.625 482.162 628 483.06 C 629.375 483.958 633.425 486.287 637 488.237 C 640.575 490.186 647.473 494.08 652.329 496.89 C 657.185 499.701 661.301 502 661.477 502 C 661.652 502 664.758 503.8 668.38 506 C 672.001 508.2 675.422 510 675.982 510 C 676.542 510 677 510.45 677 511 C 677 511.55 677.43 512 677.956 512 C 678.482 512 681.294 513.413 684.206 515.14 C 690.199 518.694 692.972 520.274 701.5 524.994 C 704.8 526.821 709.075 529.267 711 530.43 C 712.925 531.594 715.85 533.196 717.5 533.992 C 719.15 534.788 722.3 536.591 724.5 538 C 726.7 539.409 729.85 541.222 731.5 542.029 C 733.15 542.836 734.725 543.779 735 544.124 C 735.275 544.469 741.298 547.595 748.383 551.07 L 761.267 557.39 L 769.883 552.968 C 774.623 550.536 780.75 547.229 783.5 545.619 C 786.25 544.009 790.75 541.48 793.5 539.999 C 796.25 538.517 800.525 536.174 803 534.791 C 810.694 530.492 818.238 526.41 825 522.887 C 828.575 521.024 831.725 519.275 832 519 C 832.275 518.725 834.975 517.207 838 515.627 C 841.025 514.046 845.525 511.601 848 510.192 C 850.475 508.783 857.653 505.042 863.951 501.88 C 874.917 496.373 878.574 495.399 875.82 498.717 C 874.508 500.297 859.771 510.444 853.829 513.858 C 851.998 514.91 842.625 520.599 833 526.5 C 823.375 532.401 814.15 538.011 812.5 538.966 C 807.941 541.604 796.657 548.827 795.292 549.98 C 794.628 550.541 793.853 551 793.57 551 C 793.287 551 789.106 553.604 784.278 556.788 C 765.127 569.414 765.392 569.098 763.983 581 C 763.559 584.575 762.877 590.087 762.467 593.25 C 761.505 600.655 762.176 600.67 774 593.5 C 778.989 590.475 783.234 588 783.433 588 C 783.632 588 786.758 586.2 790.38 584 C 794.001 581.8 797.422 580 797.982 580 C 798.542 580 799 579.602 799 579.117 C 799 578.631 799.788 577.984 800.75 577.678 C 802.467 577.134 808.015 573.986 809 572.998 C 809.275 572.723 810.85 571.839 812.5 571.034 C 814.15 570.23 816.625 568.821 818 567.903 C 820.493 566.239 822.142 565.293 833.5 559.006 C 836.8 557.179 841.179 554.631 843.23 553.342 C 845.282 552.054 847.148 551 847.378 551 C 847.608 551 850.758 549.2 854.38 547 C 858.001 544.8 861.422 543 861.982 543 C 862.542 543 863 542.602 863 542.117 C 863 541.631 863.788 540.976 864.75 540.661 C 865.712 540.346 868.525 538.874 871 537.391 C 877.119 533.725 886.8 528.276 890.75 526.276 C 894 524.63 894 524.63 894 506.863 C 894 489.096 894 489.096 889.75 486.267 C 887.413 484.712 884.15 482.794 882.5 482.005 C 880.85 481.217 878.375 479.821 877 478.903 C 875.625 477.985 872.925 476.339 871 475.245 C 869.075 474.152 863.45 470.903 858.5 468.025 C 853.55 465.148 847.7 461.779 845.5 460.538 C 843.3 459.298 839.813 457.319 837.75 456.141 C 835.688 454.964 832.313 453.047 830.25 451.883 C 828.188 450.719 825.375 449.015 824 448.097 C 822.625 447.179 820.15 445.783 818.5 444.995 C 816.85 444.206 813.619 442.31 811.32 440.781 C 809.021 439.251 806.891 438 806.587 438 C 806.284 438 803.215 436.281 799.768 434.18 C 788.221 427.142 767.727 416.297 762.323 414.365 C 759.408 413.323 758.308 413.654 748.825 418.432 M 1046 464.5 L 1046 481 L 1071.316 481 C 1085.309 481 1099.269 480.513 1102.527 479.91 C 1109.008 478.712 1111.221 476.847 1115.093 469.32 C 1117.148 465.324 1117.214 464.668 1115.955 460.747 C 1115.205 458.411 1113.683 455.079 1112.572 453.343 C 1109.612 448.717 1104.276 448 1072.833 448 L 1046 448 L 1046 464.5 M 1270.667 448.667 C 1270.3 449.033 1270 460.283 1270 473.667 L 1270 498 L 1301.831 498 L 1333.662 498 L 1338.581 492.723 C 1345.69 485.098 1346.004 484.272 1345.972 473.264 C 1345.948 465.148 1345.564 462.759 1343.696 459.106 C 1341.038 453.909 1335.682 450.807 1326.44 449.112 C 1319.968 447.924 1271.793 447.54 1270.667 448.667 M 1602.484 449.185 C 1602.207 449.908 1602.098 476.595 1602.24 508.489 L 1602.5 566.478 L 1614 566.199 C 1632.235 565.756 1644.487 563.691 1652.953 559.634 C 1659.057 556.709 1668.341 547.9 1671.892 541.665 C 1678.833 529.479 1682.164 508.381 1679.671 492.394 C 1677.166 476.332 1666.94 460.456 1655.103 454.25 C 1652.742 453.012 1649.98 452 1648.965 452 C 1647.949 452 1646.869 451.598 1646.565 451.106 C 1645.647 449.62 1638.379 448.859 1620.243 448.353 C 1606.564 447.971 1602.883 448.143 1602.484 449.185 M 764.39 460.426 C 763.73 462.146 764.51 476.175 765.525 480.835 C 766.021 483.111 767.519 485.088 770.242 487.061 C 775.325 490.742 791.384 499 793.461 499 C 794.329 499 796.822 497.875 799 496.5 C 801.178 495.125 803.224 494 803.547 494 C 805.142 494 811 488.547 811 487.062 C 811 485.254 807.696 481.965 803.835 479.931 C 802.551 479.254 801.275 478.43 801 478.1 C 800.196 477.135 794.656 473.926 792.75 473.322 C 791.788 473.016 791 472.369 791 471.883 C 791 471.398 790.637 471 790.194 471 C 789.751 471 784.463 468.303 778.444 465.006 C 766.869 458.667 765.265 458.145 764.39 460.426 M 540.5 463.842 C 530.937 468.895 524.013 472.866 520.846 475.115 C 519.386 476.152 517.698 477 517.096 477 C 516.493 477 516 477.45 516 478 C 516 478.55 515.344 479 514.542 479 C 513.74 479 511.256 480.739 509.022 482.865 C 504.69 486.985 504.518 488.911 508.305 490.857 C 509.512 491.478 511.383 492.551 512.462 493.243 C 518.502 497.113 522.139 499 523.557 499 C 525.166 499 551.2 485.909 553.672 483.857 C 555.328 482.483 555.396 474.877 553.827 466.365 C 552.74 460.463 552.467 460.005 550.077 460.072 C 548.66 460.112 544.35 461.808 540.5 463.842 M 561.411 463.624 C 560.698 467.424 561.396 479.317 562.498 482.155 C 563.05 483.577 573.081 491 574.449 491 C 574.714 491 579.011 493.475 584 496.5 C 588.989 499.525 593.504 502 594.035 502 C 594.566 502 595 502.361 595 502.803 C 595 503.245 597.243 504.707 599.984 506.053 C 602.726 507.399 604.976 508.837 604.984 509.25 C 604.993 509.663 605.481 510 606.07 510 C 606.658 510 609.102 511.35 611.5 513 C 613.898 514.65 616.148 516 616.5 516 C 616.852 516 619.102 517.35 621.5 519 C 623.898 520.65 626.148 522 626.5 522 C 626.852 522 629.028 523.237 631.336 524.75 C 637.891 529.045 639.39 529.964 641 530.675 C 641.825 531.039 644.381 532.611 646.68 534.168 C 648.979 535.726 651.148 537 651.5 537 C 651.852 537 654.102 538.35 656.5 540 C 658.898 541.65 661.16 543 661.526 543 C 661.892 543 663.386 543.847 664.846 544.883 C 666.306 545.919 669.075 547.658 671 548.748 C 672.925 549.838 679.45 553.638 685.5 557.192 C 691.55 560.747 697.625 564.295 699 565.078 C 700.375 565.86 701.725 566.725 702 567 C 702.275 567.275 703.513 568.063 704.75 568.75 C 705.987 569.438 708.013 570.563 709.25 571.25 C 710.487 571.938 711.725 572.726 712 573.002 C 712.275 573.277 713.85 574.164 715.5 574.971 C 717.15 575.778 720.381 577.69 722.68 579.219 C 724.979 580.749 727.16 582 727.526 582 C 727.892 582 729.386 582.847 730.846 583.883 C 735.625 587.273 753.598 597 755.083 597 C 756.322 597 756.204 582.598 754.919 577.02 C 753.451 570.648 750.275 567.023 740.548 560.617 C 735.857 557.528 731.758 555 731.439 555 C 731.121 555 728.898 553.65 726.5 552 C 724.102 550.35 721.852 549 721.5 549 C 721.148 549 718.898 547.65 716.5 546 C 714.102 544.35 711.929 543 711.672 543 C 711.415 543 708.121 541.126 704.352 538.836 C 695.688 533.571 680.162 524.583 673 520.687 C 669.975 519.041 666.306 516.863 664.846 515.847 C 663.386 514.831 661.88 514 661.5 514 C 661.12 514 659.614 513.169 658.154 512.153 C 656.694 511.137 653.025 508.941 650 507.273 C 646.975 505.605 640.075 501.712 634.666 498.62 C 629.258 495.529 624.691 493 624.519 493 C 624.346 493 621.242 491.2 617.62 489 C 613.999 486.8 610.578 485 610.018 485 C 609.458 485 609 484.66 609 484.244 C 609 483.828 607.538 482.855 605.75 482.081 C 603.962 481.307 600.7 479.496 598.5 478.057 C 596.3 476.617 593.15 474.788 591.5 473.992 C 589.85 473.196 586.81 471.516 584.745 470.257 C 578.342 466.355 565.265 460 563.639 460 C 562.651 460 561.844 461.312 561.411 463.624 M 742 464.836 C 736.775 467.464 730.596 470.826 728.27 472.307 C 725.943 473.788 723.774 475 723.45 475 C 723.126 475 720.898 476.35 718.5 478 C 716.102 479.65 713.771 481.018 713.32 481.041 C 712.869 481.063 710.966 482.393 709.091 483.996 C 704.766 487.694 705.181 488.223 717.382 494.57 C 726.786 499.461 726.786 499.461 731.143 497.223 C 736.788 494.324 745.819 489.225 749.004 487.14 C 750.382 486.238 752.407 485.003 753.504 484.395 C 755.169 483.474 755.55 482.064 755.804 475.895 C 756.126 468.083 754.499 459.981 752.62 460.029 C 752.004 460.045 747.225 462.208 742 464.836 M 421.433 494.75 C 421.792 496.813 422.479 503.225 422.961 509 C 424.293 524.975 424.429 525.338 430.587 529.427 C 433.547 531.392 436.155 533 436.382 533 C 436.61 533 439.758 534.8 443.38 537 C 447.001 539.2 450.422 541 450.982 541 C 451.542 541 452.007 541.337 452.016 541.75 C 452.024 542.163 454.274 543.601 457.016 544.947 C 459.757 546.293 462 547.645 462 547.953 C 462 548.26 463.462 549.149 465.25 549.928 C 467.038 550.706 470.075 552.32 472 553.514 C 473.925 554.708 478.2 557.179 481.5 559.006 C 493.493 565.644 494.516 566.225 495.5 566.963 C 496.05 567.375 498.975 569.061 502 570.709 C 505.025 572.357 509.126 574.629 511.113 575.759 C 513.1 576.888 515.8 578.417 517.113 579.156 C 518.426 579.895 519.725 580.726 520 581.002 C 520.275 581.277 521.845 582.177 523.488 583.002 C 525.131 583.826 529.286 586.188 532.72 588.25 C 536.154 590.313 539.206 592 539.502 592 C 539.798 592 541.822 593.125 544 594.5 C 546.178 595.875 548.937 597 550.131 597 C 552.254 597 552.288 596.787 551.656 587.25 C 551.301 581.888 551.008 575.578 551.005 573.229 C 551 569.301 550.635 568.7 546.44 565.729 C 543.932 563.953 540.219 561.585 538.19 560.467 C 536.16 559.348 532.596 557.211 530.27 555.717 C 527.943 554.222 525.618 553 525.103 553 C 524.588 553 524.017 552.663 523.833 552.25 C 523.416 551.311 518.09 548.064 515.75 547.322 C 514.788 547.016 514 546.369 514 545.883 C 514 545.398 513.507 545 512.904 545 C 512.302 545 510.614 544.153 509.154 543.117 C 507.694 542.081 504.925 540.336 503 539.238 C 501.075 538.14 494.662 534.263 488.748 530.621 C 482.835 526.979 477.741 524 477.428 524 C 477.116 524 474.898 522.65 472.5 521 C 470.102 519.35 467.852 518 467.5 518 C 467.148 518 464.898 516.65 462.5 515 C 460.102 513.35 457.658 512 457.07 512 C 456.481 512 456 511.602 456 511.117 C 456 510.631 455.212 509.984 454.25 509.678 C 452.537 509.135 446.989 505.989 446 505 C 445.725 504.725 444.375 503.849 443 503.054 C 441.625 502.259 436.545 499.221 431.711 496.304 C 426.877 493.387 422.441 491 421.852 491 C 421.165 491 421.015 492.346 421.433 494.75 M 1047.5 531.834 C 1044.599 532.489 1044.479 532.742 1043.874 539.506 C 1042.97 549.611 1042.911 563.32 1043.765 564.601 C 1045.242 566.814 1051.026 567.361 1077 567.742 C 1105.198 568.156 1111.806 567.482 1117.5 563.612 C 1121.378 560.977 1122.585 559.33 1123.932 554.834 C 1125.301 550.265 1123.696 542.991 1120.28 538.281 C 1116.046 532.443 1111.437 531.675 1079 531.399 C 1063.325 531.266 1049.15 531.462 1047.5 531.834 M 617.5 535.59 C 615.3 536.939 612.825 538.334 612 538.69 C 611.175 539.045 608.619 540.611 606.32 542.168 C 604.021 543.726 601.852 545 601.5 545 C 601.148 545 598.898 546.35 596.5 548 C 594.102 549.65 591.899 551 591.605 551 C 590.939 551 573.81 561.281 568.796 564.69 C 564.342 567.718 562.591 572.43 561.06 585.5 C 559.705 597.064 559.702 597 561.666 597 C 563.626 597 581.084 587.864 595.794 579.14 C 598.706 577.413 601.26 576 601.471 576 C 601.681 576 605.519 573.75 610 571 C 614.481 568.25 618.307 566 618.503 566 C 618.849 566 629.013 559.753 641.75 551.711 C 645.188 549.541 648 547.336 648 546.811 C 648 545.403 645.739 543.385 641.374 540.898 C 625.882 532.072 623.944 531.641 617.5 535.59" stroke-linecap="round"/>
</g>
</g>
</g>
</svg>